<svg width="27" height="28" viewBox="0 0 27 28" fill="none" xmlns="http://www.w3.org/2000/svg">
<rect y="0.700012" width="26.6" height="26.6" rx="6.65" fill="#0771DE" fill-opacity="0.1"/>
<path d="M11.0833 14.1108H14.9625M11.0833 16.3275H13.5106M12.1917 10.675H14.4083C15.5167 10.675 15.5167 10.1208 15.5167 9.56668C15.5167 8.45834 14.9625 8.45834 14.4083 8.45834H12.1917C11.6375 8.45834 11.0833 8.45834 11.0833 9.56668C11.0833 10.675 11.6375 10.675 12.1917 10.675Z" stroke="#0771DE" stroke-width="0.83125" stroke-miterlimit="10" stroke-linecap="round" stroke-linejoin="round"/>
<path d="M15.5167 9.57748C17.362 9.67723 18.2875 10.3589 18.2875 12.8914V16.2164C18.2875 18.4331 17.7333 19.5414 14.9625 19.5414H11.6375C8.86667 19.5414 8.3125 18.4331 8.3125 16.2164V12.8914C8.3125 10.3644 9.23796 9.67723 11.0833 9.57748" stroke="#0771DE" stroke-width="0.83125" stroke-miterlimit="10" stroke-linecap="round" stroke-linejoin="round"/>
</svg>
